<?xml version="1.0" encoding="utf-8"?>
<!-- Generator: Adobe Illustrator 25.0.1, SVG Export Plug-In . SVG Version: 6.00 Build 0)  -->
<svg version="1.1" id="Layer_1" xmlns="http://www.w3.org/2000/svg" xmlns:xlink="http://www.w3.org/1999/xlink" x="0px" y="0px"
	 viewBox="0 0 841.9 595.3" style="enable-background:new 0 0 841.9 595.3;" xml:space="preserve" fill="white">
<g>
	<g class="st0">
		<path class="st1" d="M299.6,369.7c-11.2,19.2-25.9,44.5-40,61.5c-16.3,19.1-42.1,30.8-62.8,28.2c-44.5-5.7-35.3-65.6-23.3-102.6
			c-17.8-0.5-27-18.2-26.2-37.9c1.4-14.8,9.6-38.1,22-40.5c3.4-0.7,4.7,2.3,4.6,4.1c0.1,1.1-0.5,1.7-1,1.7c-0.7,0.1-1.2,0-1.8-0.1
			c-0.3,0-0.7,0-0.9,0c-7.2,1.5-13.2,17.2-14.4,28.3c-0.3,16.5,7.3,33.4,23.2,32.3c13.6-34,45.1-81.9,86.6-81.9
			c8.3,0,15.7,3.5,20.9,11.1c6.6,9.8,9.8,24,9.3,36.2c-0.6,13.1-5.9,23.7-16.7,26c-8.7,1.4-19.8-4-19.9-17
			c-10.1,11.5-28.4,24.8-49.3,32.6c-5.5,15.4-10.2,32.7-11.5,48.8c-0.2,2.5-0.3,5.1-0.5,7.6c-2.1,13.5,2.5,29.3,13.7,35.1
			c13.5,7.1,30.8-3.5,42.1-14.7c14.8-16.4,29.5-41.4,39.8-58.9h-0.1l4.6-8c2.3-1.5,3.8-1,5.1,1.6L299.6,369.7z M264.9,312.2
			c-0.8,10.2,4.5,19.4,12.8,18.4c4.5-1.5,7.5-7.8,7.8-15.9c1.1-19-7.8-44.3-23.3-42.2c-17.3,3.8-35.7,35.5-47.8,65.9
			c17.8-6,37-16.2,46.8-33.1c3.4-3.6,5.7-0.5,4.6,2.4C265.4,309.1,265.1,310.7,264.9,312.2z"/>
		<path class="st1" d="M316.1,361.3c1.9-2.6,3.5-5.5,5.5-8.5c8-12.7,17.4-27,29.4-27c8.3,0,10.7,6.1,10,14.1
			c-0.8,8.3-4.5,19.3-8,29.6c-3.5,9.8-6.8,19.8-7.5,26.5c-0.1,3.1,0.1,8.7,2.6,8.7c7.1,0,28.4-41.9,29.6-44.3l0.3-0.8H378
			c0.7-1.5,1.1-2.5,2.9-2.5c1.2,0,2.1,0.9,2.7,2.1l-3.4,6.9c-9,17.9-24,47.7-37.8,47.7c-10.4,0-13.8-6.4-13.8-15.4
			c0-1,0-2.4,0.1-3.4c1.5-11.6,7.2-27.5,11.6-39.2c3.1-8.1,5.7-14.8,6-17.9c0.1-1.5-0.2-2-1-2c-8.1,0-25.1,29.3-31.3,39.8v-0.1
			l-1.8,3.2h0.1c-2.5,6-4.4,14.8-5.1,21.8c-0.3,5.3,0.5,9.2,0.9,11.2c0.2,0.7,0.3,1.2,0.3,1.7c0,1.2-1,1.6-2.6,1.6
			c-10.9,0-13.7-9.6-13.7-18.9c0-1.5,0.1-3.1,0.2-4.6c0.9-10.5,6.6-34.4,11.6-55.9c4.1-17.3,7.8-33,8.3-38.3
			c0.1-2.5-0.2-4.2-0.5-5.7c-0.1-0.8-0.2-1.5-0.2-2c0.1-2,2-2.6,4.2-2.6c11.4,0,13.6,8.1,13,15.7c-0.5,4.5-5.1,24.6-8.8,40.8
			L316.1,361.3z"/>
		<path class="st1" d="M393.4,417.1c-15.7,0-21.5-14.2-21.5-29.8c0-1.9,0-3.8,0.2-5.9v0.1c2.1-25.2,18.7-55.2,39.6-55.2
			c13.2,0,21.1,12.4,20.5,24.4c-1.9,17-22.3,28.5-37.5,31.8c-0.6,2.5-0.9,5.3-1.2,8.3c-0.1,1.1-0.1,2.6-0.1,3.7
			c0,6.6,1.8,12.9,9.2,13.5c11.5-0.3,20.6-15.6,26.3-25.2v0.1c3.6-6.2,6.8-12.7,9.3-17.6c1.1-2.3,2.9-5.4,4.1-7.6
			c0.8-0.3,1.5-0.6,1.7-0.6c1.4,0,2.1,0.9,2.7,2.1l-1.1,2.5c-2.7,5.5-6.9,13.8-11.6,22C425.7,398.3,414.4,417.1,393.4,417.1z
			 M420.9,339.8c-8.8,0-22.4,26.9-24.9,36.6c10.2-1.4,29.5-11.2,30.6-24.8c0.3-2.8-0.2-5.7-1.7-8.6
			C423.9,340.8,422.4,339.8,420.9,339.8z"/>
		<path class="st1" d="M451,308.9c5.2,0,10,2.4,10,8.5c0,4.6-2.5,10.9-5.3,17.6c-1.4,3.4-2.8,6.9-4.1,10.5
			c11.6,17.4,21.9,36.6,22.2,47.1c6.9-10.2,13.7-23.2,17.4-30.8c0.1-0.2,0.3-0.6,0.3-0.6l0.9-1.8h-0.1c0.7-1.5,1.1-2.5,2.8-2.5
			c1.4,0,2.4,0.9,2.9,2.3l-0.7,1.4L497,361c-6.6,13.3-20.6,41.4-32.6,50.4c-7.3,5-18.1,8-26.7,8c-10,0-17.8-3.6-17.1-11.4
			c0.2-2.1,2.5-4.9,4.9-4.9c1.8,0,1.8,2,1.7,3.8c-0.1,4.9,5.2,5.7,9.6,5.4c12-0.5,17.1-8.1,17.5-20.6c-0.1-8-4.5-21.3-10.2-30
			l-5,11.2l-4.1-1.5l6-14.1c-5.2-6.7-8.9-16.4-8.9-25.7c0-7.2,2.3-14.4,8.4-19.3C443.3,310.1,447.3,308.9,451,308.9z M449.2,338.4
			c2.8-6.7,6.8-16.7,5.7-19.2h0.1c-0.5-0.9-0.9-1.4-1.5-1.5c-2.6-0.5-6.8,8.7-6.8,16.7c0,2.4,0.5,4.6,1.4,6.7L449.2,338.4z"/>
		<path class="st1" d="M502.6,308.9c5.2,0,10,2.4,10,8.5c0,4.6-2.5,10.9-5.3,17.6c-1.4,3.4-2.8,6.9-4.1,10.5
			c11.6,17.4,21.9,36.6,22.2,47.1c6.9-10.2,13.7-23.2,17.4-30.8c0.1-0.2,0.3-0.6,0.3-0.6l0.9-1.8h-0.1c0.7-1.5,1.1-2.5,2.8-2.5
			c1.4,0,2.4,0.9,2.9,2.3l-0.7,1.4l-0.3,0.3c-6.6,13.3-20.6,41.4-32.6,50.4c-7.3,5-18.1,8-26.7,8c-10,0-17.8-3.6-17.1-11.4
			c0.2-2.1,2.5-4.9,4.9-4.9c1.8,0,1.8,2,1.7,3.8c-0.1,4.9,5.2,5.7,9.6,5.4c12-0.5,17.1-8.1,17.5-20.6c-0.1-8-4.5-21.3-10.2-30
			l-5,11.2l-4.1-1.5l6-14.1c-5.2-6.7-8.9-16.4-8.9-25.7c0-7.2,2.3-14.4,8.4-19.3C494.9,310.1,498.8,308.9,502.6,308.9z M500.8,338.4
			c2.8-6.7,6.8-16.7,5.7-19.2h0.1c-0.5-0.9-0.9-1.4-1.5-1.5c-2.6-0.5-6.8,8.7-6.8,16.7c0,2.4,0.5,4.6,1.4,6.7L500.8,338.4z"/>
		<path class="st1" d="M599,340.7c-0.1,1-0.2,2-0.6,3.3c-2.3,10.7-6.1,29.8-7.8,48.7c2.7-0.2,5.7-0.7,8.5-0.9h1.5
			c0.5,0,0.7,0,1.1-0.1c-1-9.4-2.3-23.5-2.3-39.6c0-6.1,0.1-12.9,0.8-19.3c3.3-32.3,15.4-65.7,49.1-65.7c29.2,0,41.6,26.5,41.6,60.3
			c0,4-0.2,8.7-0.6,12.9c-5.7,57.3-42.5,128.4-91.7,128.4c-26,0-40.3-21.4-44.2-47.5c-5.3,4-9.5,8.6-9.9,12.4
			c-0.1,0.3,0.1,1.5,0.3,2.3c0.1,0.6,0.1,1.5,0.1,1.8c0,0.8-0.7,1.6-1.7,1.6c-1.7,0-4.4-3.4-4.9-4.4c-0.3-1.8-0.7-4.6-0.7-6.2
			c0.9-7,6.8-14.6,15.4-20.7c-0.3-3.1-0.3-5.9-0.3-9.2c0-6.4,0.3-12.6,0.9-18.4c1.2-14.5,3.7-27.8,6.7-37v0.1
			c5.1-6.6,13.2-9.7,21-9.7c6.4,0,12.9,2.4,17.5,6.3L599,340.7z M604.8,400.8c-5.5,0-10.1,1.2-14.6,2.6c-0.2,23.3,5.3,44,26.3,44
			c34.5,0,62.2-57.9,66.5-106.5c0.3-4.1,0.5-8.3,0.5-12.2c0-29.7-10.2-53.8-34.4-53.8c-17,0-24.6,25.4-27.2,52.1c-0.7,7.1-1,15-1,22
			c0,14.7,1.6,32.1,3.2,42.6l1.2,6.9c0.5,1.6,0.8,2.9,0.7,3.8c-0.1,0.9-0.8,1.4-1.6,1.4c-1,0-2.7-0.3-4.7-0.9c-0.5,0-1-0.1-1.5-0.2
			l-1.4-0.3C612,401.2,608,400.8,604.8,400.8z"/>
		<path class="st1" d="M714.7,361.3c1.8-2.5,3.5-5.5,5.5-8.5c8-12.7,17.4-27,29.4-27c8.4,0,10.7,6,10.1,14.1
			c-0.7,8.4-4.4,19.4-8.3,30c-3.3,9.6-6.6,19.7-7.3,26.1c-0.1,3.1,0.1,8.7,2.6,8.7c6.6,0.1,25.9-37.1,29.3-43.6
			c0-0.1,0.2-0.6,0.3-0.7l0.5-0.9c0.7-1.4,1.1-2.4,2.7-2.4c1.5,0,2.3,0.9,2.8,2.1c-1,1.8-2.5,4.5-3.6,7.1
			c-8.9,17.8-23.5,47.5-37.5,47.5c-10.4,0-13.9-6.6-13.9-15.5c0-0.9,0-2.3,0.1-3.3c1.4-11.6,7.1-27.5,11.6-39.2
			c3.1-8.1,5.7-14.8,6-17.9c0.1-1.5-0.2-2-1-2c-8.1,0-25.1,29.3-31.3,39.8v-0.1l-1.8,3.2h0.1c-2.5,6.1-4.5,14.8-5.1,21.8
			c-0.1,1.2-0.1,2.4-0.1,3.5c0,3.6,0.6,6.2,1,7.8c0.2,0.7,0.3,1.1,0.3,1.6c0,1.2-1,1.6-2.5,1.6c-11,0-13.8-9.6-13.8-18.9
			c0-1.5,0.1-3.1,0.2-4.6c0.8-9.8,3.7-22.2,6.2-31.7c2-8,3.8-15.5,4.3-20.6c0.1-2.4-0.2-4.2-0.5-5.7c-0.1-0.8-0.2-1.4-0.2-1.9
			c0.1-2,2.1-2.7,4.3-2.7c11.4,0,13.5,8.3,12.9,15.7c-0.3,4.1-1.2,8.4-2.3,12C715.4,358.4,714.9,359.9,714.7,361.3z"/>
	</g>
	<g>
		<path class="st1" d="M225.1,259.2c0.6-28.2,2.4-38.9,3.9-45.7c8.2-2.3,14.3-9.8,14.3-18.8c0-7.9-4.7-14.7-11.5-17.8l16.8-61.6
			c5.1-2.3,8.5-7.8,7.6-13.9c-0.9-5.7-5.6-10.3-11.4-10.9c-7.9-0.9-14.6,5.3-14.6,12.9c0,0.7,0.1,1.4,0.2,2.1
			c-15.5,1.5-28.5-2.9-41.7-14.2c1.9-2.7,2.8-6,2.2-9.7c-0.9-5.7-5.7-10.1-11.4-10.8c-7.9-0.9-14.5,5.3-14.5,13
			c0,2.8,0.9,5.3,2.4,7.5c-13.2,11.3-26.2,15.7-41.7,14.2c0.1-0.7,0.2-1.4,0.2-2.1c0-7.7-6.7-13.8-14.6-12.9
			c-5.8,0.7-10.5,5.2-11.4,10.9c-0.9,6.2,2.5,11.6,7.6,13.9l16.8,61.6c-7.4,3.4-12.4,11.3-11.4,20.2c1.2,9.9,9.9,17.2,19.9,17.2
			c17.5,0,53.3,0,64.5,0c3.1,0,6-2.1,6.6-5.2c0.9-4.2-2.3-7.9-6.4-7.9h-64.9c-3.1,0-6-2.1-6.6-5.1c-0.9-4.2,2.3-7.9,6.4-7.9
			c2,0,3.9-0.9,5.2-2.6c1.2-1.6,1.6-3.7,1.1-5.7L122,118.3c21,2.7,38.8-3.3,56.2-18.9c17.3,15.6,35.1,21.6,56.2,18.9l-15.5,56.8h-60
			c-3.1,0-6,2.1-6.6,5.2c-0.8,4.2,2.4,7.9,6.4,7.9h64.9c3.1,0,6,2.1,6.6,5.1c0.9,4.2-2.3,7.9-6.4,7.9c-0.1,0-0.2,0-0.2,0.1
			c-0.5,0-0.9,0.2-1.4,0.3c-0.4,0.1-0.7,0.1-1.1,0.3c-0.4,0.2-0.7,0.4-1.1,0.7c-0.3,0.2-0.7,0.4-0.9,0.7c-0.3,0.3-0.4,0.6-0.7,1
			c-0.2,0.4-0.5,0.8-0.7,1.2c0,0.1-0.1,0.1-0.1,0.2c-0.3,0.8-7.2,20.5-8.2,60.6c0,1.6,1.9,2.4,3,1.1c2.1-2.5,6.6-4.8,10-5
			C224,262.3,225,260.7,225.1,259.2z"/>
		<path class="st1" d="M163.9,452.1H84.4v-26.7c0-6.8,5.6-12.4,12.4-12.4h33.2c0.8,0,1.4-0.1,2.1-0.4c2.6-0.9,4.4-3.3,4.4-6.1
			c0-3.3-2.4-6-5.6-6.4c-0.3,0-0.6-0.1-0.9-0.1c-9.5,0-19.6-10.1-19.6-19.6c0-9.7,5.7-21.4,12.3-35c9.1-18.6,20.3-41.9,20.3-69.3
			c0-8.6-1.1-22-3.2-40c-0.4-3.6-3.7-6.2-7.2-5.7c-3.6,0.4-6.1,3.7-5.7,7.2c2,17.2,3.1,30.5,3.1,38.5c0,24.5-10.1,45.3-19,63.6
			c-7.3,15-13.6,28-13.6,40.7c0,6.9,2.7,13.6,7,19.1c0.1,0.2,0,0.4-0.2,0.4h-7.4c-14,0-25.4,11.5-25.4,25.5v39.8h104.7
			c1.8,0,2.2-2.5,0.6-3.1c-4.7-1.8-7.6-3.9-9.6-8C166.5,452.8,165.2,452.1,163.9,452.1z"/>
	</g>
</g>
</svg>
